<svg xmlns="http://www.w3.org/2000/svg" viewBox="0 0 300 100">
  <style>
    .st0{fill:#003366;}
    .st1{fill:#FF9900;}
  </style>
  <g>
    <path class="st0" d="M40.2,20h35.6c11.3,0,20.5,9.2,20.5,20.5v0c0,11.3-9.2,20.5-20.5,20.5H40.2c-11.3,0-20.5-9.2-20.5-20.5v0
      C19.7,29.2,28.9,20,40.2,20z"/>
    <path class="st1" d="M58,30.5c5.5,0,10,4.5,10,10s-4.5,10-10,10s-10-4.5-10-10S52.5,30.5,58,30.5z"/>
    <path class="st0" d="M120.5,30.1h9.8c6.6,0,11.2,4.4,11.2,10.4c0,6-4.6,10.4-11.2,10.4h-9.8V30.1z M130.1,46.9
      c4.1,0,6.9-2.7,6.9-6.4c0-3.7-2.8-6.4-6.9-6.4h-5.3v12.8H130.1z"/>
    <path class="st0" d="M146.7,30.1h4.5v20.8h-4.5V30.1z"/>
    <path class="st0" d="M158.3,30.1h4.2l11.9,14.1V30.1h4.4v20.8h-3.9L163,36.7v14.2h-4.4V30.1z"/>
    <path class="st0" d="M198.3,30.1h4.5v20.8h-4.5V30.1z"/>
    <path class="st0" d="M210.3,40.5L210.3,40.5c0-6,4.6-10.8,11-10.8c6.4,0,10.9,4.7,10.9,10.7v0c0,6-4.6,10.8-11,10.8
      C214.8,51.2,210.3,46.5,210.3,40.5z M227.7,40.5L227.7,40.5c0-3.7-2.7-6.8-6.5-6.8c-3.8,0-6.4,3-6.4,6.7v0c0,3.7,2.7,6.8,6.5,6.8
      C225.1,47.2,227.7,44.2,227.7,40.5z"/>
    <path class="st0" d="M238.8,30.1h4.5v16.8h10.5v4h-15V30.1z"/>
    <path class="st0" d="M259.6,30.1h15.7v3.9h-11.2v4.4h9.9v3.9h-9.9v4.6h11.4v3.9h-15.8V30.1z"/>
    <path class="st0" d="M120.5,55.1h4.5v8.3h8.5v-8.3h4.5v20.8h-4.5v-8.5h-8.5v8.5h-4.5V55.1z"/>
    <path class="st0" d="M144.5,55.1h4.2l11.9,14.1V55.1h4.4v20.8h-3.9l-11.9-14.2v14.2h-4.4V55.1z"/>
    <path class="st0" d="M172.5,55.1h15.7V59h-11.2v4.4h9.9v3.9h-9.9v4.6h11.4v3.9h-15.8V55.1z"/>
    <path class="st0" d="M194.9,55.1h9.3c2.7,0,4.8,0.8,6.2,2.1c1.1,1.1,1.8,2.7,1.8,4.5v0.1c0,3.2-1.7,5.1-4.2,6.1l4.8,8h-5.2
      l-4.2-7.1h-4v7.1h-4.5V55.1z M203.9,64.8c2.1,0,3.3-1.1,3.3-2.8v-0.1c0-1.9-1.3-2.8-3.4-2.8h-4.4v5.7H203.9z"/>
    <path class="st0" d="M218.5,55.1h4.5v20.8h-4.5V55.1z"/>
    <path class="st0" d="M230.1,55.1h4.2l11.9,14.1V55.1h4.4v20.8h-3.9l-11.9-14.2v14.2h-4.4V55.1z"/>
    <path class="st0" d="M258.1,55.1h15.7V59h-11.2v4.4h9.9v3.9h-9.9v4.6H274v3.9h-15.8V55.1z"/>
  </g>
</svg>